<?xml version="1.0" encoding="UTF-8"?>
<svg id="Capa_2" data-name="Capa 2" xmlns="http://www.w3.org/2000/svg" viewBox="0 0 328.93 341.01">
  <defs>
    <style>
      .cls-1 {
        fill: #ffffff;
        stroke: #102d4d;
        stroke-miterlimit: 10;
      }

      .cls-2 {
        fill: #1d9ddb;
      }

      .cls-2, .cls-3 {
        stroke-width: 0px;
      }

      .cls-3 {
        fill: #102d4d;
      }
    </style>
  </defs>
  <rect class="cls-1" x="9.99" y="3.14" width="309.08" height="334.96" rx="48.24" ry="48.24"/>
  <g>
    <path class="cls-2" d="M255.54,73.65v-39.16h-32.86v11.61c10.95,9.18,21.91,18.36,32.86,27.55Z"/>
    <g>
      <path class="cls-3" d="M286.64,116.27v76.39c-6.82-11.88-16.27-22.04-27.55-29.69v-35.68c0-2.29-.98-4.46-2.68-6l-88.67-79.1c-1.76-1.57-4.39-1.57-6.15,0l-88.94,79.35c-1.7,1.52-2.68,3.7-2.68,6v35.43c-4.6,3.12-8.9,6.67-12.84,10.57-5.71,5.67-10.68,12.1-14.72,19.13v-76.17c0-1.23.53-2.41,1.46-3.22L164.67,7.56l120.51,105.49c.94.81,1.46,1.99,1.46,3.22Z"/>
      <path class="cls-3" d="M238.5,136.93v15.64c-9.35-3.3-19.41-5.09-29.89-5.09-11.6,0-22.68,2.2-32.86,6.19v-14.27h.07v-4.09h14.81l-25.77-38.07c-.48-.71-1.52-.71-2.01,0l-25.77,38.07h14.81v17.82c-9.78-3.65-20.37-5.65-31.44-5.65s-21.57,1.98-31.31,5.6v-16.09c0-2.65,1.13-5.16,3.1-6.93l67.95-60.72c2.08-1.86,5.24-1.86,7.32,0l67.89,60.66c1.97,1.76,3.1,4.28,3.1,6.93Z"/>
    </g>
    <g>
      <path class="cls-3" d="M195.76,198.78c-7.39,2.46-14.46,5.6-21.14,9.36,9.71,10.95,15.61,25.37,15.61,41.15,0,34.28-27.79,62.07-62.07,62.07-5.5,0-10.84-.72-15.92-2.06-17.44-4.62-31.88-16.63-39.73-32.5-4.1-8.29-6.41-17.62-6.41-27.51,0-34.17,27.6-61.88,61.72-62.07,8.22-6.87,17.11-12.96,26.55-18.17-8.25-2.69-17.05-4.15-26.2-4.15-46.61,0-84.38,37.77-84.38,84.38,0,23.17,9.34,44.16,24.45,59.41,12,12.1,27.63,20.59,45.12,23.68,4.81.86,9.76,1.3,14.81,1.3,46.61,0,84.38-37.77,84.38-84.38,0-18.95-6.24-36.44-16.78-50.52Z"/>
      <path class="cls-3" d="M147.2,219.37c-4.9,8.88-7.69,19.08-7.69,29.93,0,16.28,6.27,31.1,16.53,42.17-5.86,4.69-12.17,8.82-18.85,12.36-12.47-14.71-19.99-33.74-19.99-54.53,0-11.75,2.4-22.94,6.74-33.11,7.22-16.91,19.81-30.99,35.62-40.08,12.37-7.12,26.72-11.19,42.02-11.19,35.02,0,65.06,21.34,77.82,51.73h-25.06c-2.76-4.45-6.07-8.53-9.83-12.15-11.15-10.68-26.27-17.26-42.94-17.26-23.43,0-43.83,12.98-54.38,32.14Z"/>
    </g>
    <path class="cls-3" d="M285.97,249.3c0,46.61-37.77,84.38-84.38,84.38-8.6,0-16.9-1.28-24.72-3.68,7.74-5.6,14.98-11.87,21.61-18.71,1.03.06,2.06.08,3.11.08,30.39,0,55.68-21.86,61.01-50.71h-38.9v-22.31h61.54c.46,3.58.73,7.23.73,10.95Z"/>
  </g>
</svg>