<?xml version="1.0" encoding="UTF-8"?>
<svg id="Capa_2" data-name="Capa 2" xmlns="http://www.w3.org/2000/svg" viewBox="0 0 328.93 341.01">
  <defs>
    <style>
      .cls-1 {
        fill: #1d9ddb;
      }

      .cls-1, .cls-2 {
        stroke-width: 0px;
      }

      .cls-2 {
        fill: #102d4d;
      }
    </style>
  </defs>
  <path class="cls-1" d="M253.47,74.86v-38.13h-32v11.31c10.67,8.94,21.33,17.88,32,26.82Z"/>
  <g>
    <path class="cls-2" d="M283.76,116.36v74.39c-6.64-11.57-15.85-21.46-26.83-28.91v-34.74c0-2.23-.95-4.35-2.61-5.84l-86.34-77.02c-1.71-1.53-4.28-1.53-5.99,0l-86.6,77.26c-1.66,1.48-2.61,3.6-2.61,5.84v34.5c-4.48,3.04-8.67,6.5-12.5,10.29-5.56,5.52-10.4,11.79-14.33,18.63v-74.17c0-1.2.52-2.35,1.43-3.14L164.98,10.5l117.35,102.72c.91.79,1.43,1.94,1.43,3.14Z"/>
    <path class="cls-2" d="M236.88,136.47v15.23c-9.11-3.22-18.9-4.96-29.1-4.96-11.29,0-22.09,2.14-32,6.02v-13.89h.07v-3.98h14.42l-25.1-37.07c-.47-.69-1.48-.69-1.95,0l-25.1,37.07h14.42v17.35c-9.52-3.56-19.84-5.5-30.61-5.5s-21,1.93-30.48,5.45v-15.67c0-2.58,1.1-5.03,3.02-6.75l66.17-59.12c2.03-1.81,5.1-1.81,7.13,0l66.1,59.07c1.92,1.71,3.02,4.17,3.02,6.75Z"/>
  </g>
  <g>
    <path class="cls-2" d="M195.26,196.7c-7.2,2.39-14.08,5.45-20.59,9.12,9.46,10.67,15.2,24.7,15.2,40.07,0,33.38-27.06,60.44-60.44,60.44-5.35,0-10.56-.7-15.5-2.01-16.99-4.5-31.04-16.2-38.69-31.65-3.99-8.08-6.24-17.16-6.24-26.79,0-33.27,26.87-60.25,60.1-60.44,8-6.69,16.66-12.62,25.85-17.69-8.03-2.62-16.6-4.04-25.51-4.04-45.38,0-82.17,36.78-82.17,82.17,0,22.56,9.1,43,23.81,57.85,11.69,11.79,26.91,20.05,43.94,23.05,4.69.83,9.5,1.26,14.42,1.26,45.38,0,82.17-36.78,82.17-82.17,0-18.46-6.08-35.49-16.34-49.19Z"/>
    <path class="cls-2" d="M147.97,216.75c-4.77,8.65-7.48,18.58-7.48,29.14,0,15.86,6.1,30.29,16.1,41.06-5.71,4.56-11.85,8.59-18.36,12.04-12.15-14.32-19.47-32.85-19.47-53.1,0-11.44,2.34-22.34,6.56-32.24,7.03-16.47,19.29-30.18,34.69-39.03,12.05-6.93,26.02-10.9,40.92-10.9,34.1,0,63.35,20.78,75.78,50.37h-24.4c-2.69-4.33-5.91-8.31-9.57-11.83-10.85-10.4-25.58-16.81-41.81-16.81-22.81,0-42.67,12.64-52.96,31.3Z"/>
  </g>
  <path class="cls-2" d="M283.1,245.9c0,45.38-36.78,82.17-82.17,82.17-8.37,0-16.46-1.25-24.07-3.59,7.54-5.45,14.58-11.55,21.05-18.22,1,.05,2.01.08,3.03.08,29.59,0,54.22-21.29,59.41-49.38h-37.88v-21.73h59.92c.45,3.49.71,7.04.71,10.67Z"/>
</svg>