<?xml version="1.0" encoding="UTF-8"?>
<svg version="1.1" xmlns="http://www.w3.org/2000/svg" width="328" height="340">
<path d="M0 0 C2.36786495 -0.00050927 4.73573007 -0.00276797 7.10359192 -0.00663757 C13.51021104 -0.01204146 19.9165393 0.00731169 26.32310629 0.03146338 C32.35185281 0.05248553 38.38062264 0.05187464 44.40939845 0.05349181 C56.34931968 0.0573604 68.28913203 0.07977658 80.22900391 0.11328125 C91.80876115 0.14574871 103.38846092 0.16697054 114.96826172 0.17480469 C116.03948516 0.17553292 116.03948516 0.17553292 117.13234948 0.17627587 C120.00314096 0.1782047 122.87393245 0.18011683 125.74472397 0.18199198 C136.79391182 0.18952472 147.84309028 0.20514836 158.89226659 0.22248858 C162.22747253 0.22772114 165.56267842 0.23265442 168.8978858 0.2368505 C176.49876705 0.24663364 184.09960587 0.26111807 191.70046043 0.2836895 C194.00432259 0.28981337 196.30818989 0.29426275 198.61205864 0.29693222 C201.75173095 0.30091197 204.89132397 0.31102835 208.03097534 0.32279968 C208.94662636 0.32261532 209.86227737 0.32243096 210.80567539 0.32224101 C214.90210529 0.34391171 218.71259254 0.43540925 222.70751953 1.4699707 C222.70751953 2.1299707 222.70751953 2.7899707 222.70751953 3.4699707 C223.69751953 3.5318457 224.68751953 3.5937207 225.70751953 3.6574707 C230.48601543 4.34972765 233.82794824 6.72751514 237.70751953 9.4699707 C238.38041016 9.91469727 239.05330078 10.35942383 239.74658203 10.81762695 C245.18550034 14.58707034 248.90382433 19.09434024 252.70751953 24.4699707 C253.45001953 25.5012207 254.19251953 26.5324707 254.95751953 27.5949707 C260.49375959 36.69022222 262.00996421 45.44311297 261.96821594 55.85568237 C261.97204149 56.8763502 261.97586704 57.89701803 261.97980851 58.94861519 C261.99009507 62.3553635 261.98615458 65.7619419 261.98217773 69.16870117 C261.9865266 71.61668045 261.99171034 74.06465838 261.99766541 76.51263428 C262.00965883 82.46393756 262.01220907 88.41517451 262.00986514 94.36648379 C262.00807913 99.20602934 262.00983768 104.04556122 262.01408958 108.88510513 C262.01468477 109.57497429 262.01527996 110.26484346 262.01589319 110.97561774 C262.01710499 112.37727816 262.01831913 113.77893858 262.01953556 115.18059899 C262.03040196 128.31362497 262.0282529 141.44662526 262.02215072 154.57965268 C262.01698253 166.58076048 262.028236 178.58178708 262.04724894 190.58287881 C262.06664468 202.92066344 262.07488028 215.25840968 262.07112569 227.59620965 C262.06921625 234.51690412 262.071676 241.43752951 262.08584023 248.35821152 C262.09902749 254.86714315 262.09647046 261.37593938 262.08342934 267.88488007 C262.08106491 270.27049693 262.08379342 272.65612524 262.09205246 275.04172897 C262.1025326 278.30477087 262.09440858 281.56726909 262.08174133 284.83029175 C262.08911562 285.76844345 262.0964899 286.70659515 262.10408765 287.67317569 C262.02546058 297.33798798 259.34345803 305.43373334 254.14501953 313.5324707 C253.48856445 314.56271362 253.48856445 314.56271362 252.81884766 315.61376953 C246.84647009 324.6567096 239.09237124 331.84438212 228.70751953 335.4699707 C227.38751953 335.4699707 226.06751953 335.4699707 224.70751953 335.4699707 C224.70751953 336.1299707 224.70751953 336.7899707 224.70751953 337.4699707 C211.91668709 340.49092848 199.70365577 340.89395352 186.61083984 340.84228516 C184.43093187 340.84471838 182.25102503 340.84844283 180.07112122 340.85334778 C174.19742272 340.86268543 168.32389294 340.85339288 162.45020771 340.84001565 C156.2805869 340.82862836 150.11097352 340.83281411 143.94134521 340.83476257 C133.58879874 340.83564299 123.23631806 340.8246158 112.88378906 340.80615234 C100.93670786 340.78496627 88.98972281 340.78148116 77.04262662 340.7877143 C65.51494412 340.79341925 53.98729526 340.7877504 42.45961761 340.77654076 C37.56838098 340.77191204 32.67716504 340.77101338 27.78592682 340.7731266 C22.02379129 340.77501766 16.2617529 340.76684291 10.49963951 340.75106621 C8.39222045 340.74684398 6.2847915 340.74595883 4.17737007 340.74875641 C-14.22809731 340.76947369 -31.75267712 340.27323883 -46.29248047 327.4699707 C-47.03240234 326.85766602 -47.77232422 326.24536133 -48.53466797 325.61450195 C-55.57008052 319.30158126 -58.7988827 312.05206957 -62.29248047 303.4699707 C-62.64310547 302.6346582 -62.99373047 301.7993457 -63.35498047 300.9387207 C-66.17365066 293.89204523 -66.44117292 287.21679105 -66.43965149 279.74478149 C-66.44332818 278.77089143 -66.44700487 277.79700137 -66.45079297 276.79359949 C-66.46179861 273.53288582 -66.4656684 270.27220405 -66.46948242 267.01147461 C-66.47574956 264.67204691 -66.48239659 262.3326202 -66.48939514 259.99319458 C-66.51041295 252.31098114 -66.5207973 244.62876756 -66.53076172 236.9465332 C-66.53481051 234.29770268 -66.53892747 231.64887227 -66.5431118 229.00004196 C-66.56012111 217.97664281 -66.57461199 206.95324462 -66.58186054 195.92983437 C-66.58377017 193.07228214 -66.58569054 190.21472993 -66.58764648 187.35717773 C-66.58813022 186.64702017 -66.58861396 185.9368626 -66.58911236 185.2051851 C-66.59740044 173.71884151 -66.62271794 162.23260247 -66.65522716 150.74630447 C-66.68839353 138.93062553 -66.70631801 127.11499954 -66.70950478 115.29927385 C-66.71166129 108.67455094 -66.72073302 102.04996293 -66.74596596 95.42528152 C-66.76934855 89.18553416 -66.77343894 82.94605968 -66.76320457 76.70627975 C-66.76271154 74.42637979 -66.76896284 72.14646593 -66.78276062 69.86660767 C-66.96453167 38.0292514 -66.96453167 38.0292514 -57.29248047 26.4699707 C-56.00395195 24.13500085 -54.78874722 21.77561424 -53.60107422 19.38793945 C-52.06767503 17.14047975 -50.6972225 16.63545917 -48.29248047 15.4699707 C-47.96248047 14.4799707 -47.63248047 13.4899707 -47.29248047 12.4699707 C-45.11279297 10.86450195 -45.11279297 10.86450195 -42.41748047 9.2824707 C-41.53318359 8.75266602 -40.64888672 8.22286133 -39.73779297 7.67700195 C-37.29248047 6.4699707 -37.29248047 6.4699707 -34.29248047 6.4699707 C-34.29248047 5.8099707 -34.29248047 5.1499707 -34.29248047 4.4699707 C-23.66811417 -1.27585979 -11.68679495 -0.06978823 0 0 Z " fill="#FCFCFC" transform="translate(66.29248046875,-0.469970703125)"/>
<path d="M0 0 C3.92353234 1.61612165 6.71400006 4.31329165 9.75 7.1875 C10.82877238 8.19341092 11.90819893 9.19862075 12.98828125 10.203125 C13.5085791 10.68845703 14.02887695 11.17378906 14.56494141 11.67382812 C16.32409438 13.29950334 18.1227532 14.87426395 19.9375 16.4375 C24.12032011 20.06144644 28.16271807 23.83255746 32.22021484 27.59521484 C35.73482029 30.84864787 39.29608667 34.03408762 42.91796875 37.16796875 C46.13646877 40.00000723 49.28293411 42.91027948 52.43774414 45.81274414 C55.60797718 48.72804404 58.79403325 51.62390764 62 54.5 C65.7329474 57.84884992 69.43450483 61.22960611 73.125 64.625 C76.31869344 67.5629982 79.5239533 70.48049774 82.8125 73.3125 C87.51684731 77.38299841 92.02339247 81.66886296 96.54614258 85.9387207 C97.16255615 86.518396 97.77896973 87.09807129 98.4140625 87.6953125 C98.9601416 88.21109863 99.5062207 88.72688477 100.06884766 89.25830078 C102.10850131 91.17101356 102.10850131 91.17101356 105.078125 93.14308167 C107.71173166 95.34869168 107.97142777 95.86343809 108.7215271 99.44856262 C108.73878197 100.78312892 108.72326511 102.11837929 108.68115234 103.45239258 C108.68246658 104.55076447 108.68246658 104.55076447 108.68380737 105.67132568 C108.67964292 108.08016447 108.6330532 110.4861821 108.5859375 112.89453125 C108.5747411 114.56888813 108.566203 116.24326472 108.56021118 117.91764832 C108.53734731 122.31581284 108.47844665 126.71278062 108.4119873 131.11047363 C108.35051115 135.6014792 108.32318488 140.09267895 108.29296875 144.58398438 C108.22869965 153.38987095 108.12635156 162.19478643 108 171 C107.34 171 106.68 171 106 171 C104.7734375 169.34765625 104.7734375 169.34765625 103.375 167.0625 C99.672301 161.3228639 95.39465648 154.96526044 89.39550781 151.4921875 C86.24839139 148.21805741 86.47376325 146.31735478 86.53755188 141.91670227 C86.57285507 140.98126083 86.60815826 140.0458194 86.64453125 139.08203125 C86.66219175 137.08529822 86.67842215 135.08855213 86.69335938 133.09179688 C86.74505858 129.95529697 86.81224897 126.82080874 86.90698242 123.68530273 C87.67099983 111.72875346 87.67099983 111.72875346 83.94433594 100.77441406 C81.41622699 98.50301419 78.90364527 96.75431413 76 95 C74.83844256 93.99317362 73.70089884 92.95723078 72.6015625 91.8828125 C72.10906006 91.42704834 71.61655762 90.97128418 71.10913086 90.50170898 C70.61936768 90.04739502 70.12960449 89.59308105 69.625 89.125 C68.51448077 88.09748562 67.4038 87.0701458 66.29296875 86.04296875 C65.74431152 85.53556152 65.1956543 85.0281543 64.63037109 84.50537109 C62.07190117 82.14305819 59.50535059 79.78960732 56.9375 77.4375 C56.44652832 76.98777832 55.95555664 76.53805664 55.44970703 76.07470703 C54.46115485 75.16937398 53.47254823 74.26410037 52.48388672 73.35888672 C49.98835593 71.07357504 47.49425473 68.7867042 45 66.5 C44.00000675 65.58332596 43.00000676 64.6666593 42 63.75 C36 58.25 36 58.25 34.49951172 56.87451172 C33.50119339 55.95941367 32.50282114 55.04437445 31.50439453 54.12939453 C28.46664252 51.34536667 25.43100107 48.55905969 22.39672852 45.77124023 C20.89798219 44.39608698 19.39648388 43.02399339 17.89453125 41.65234375 C15.9869934 39.90441095 14.08828935 38.14678125 12.19921875 36.37890625 C11.32910156 35.57324219 10.45898438 34.76757812 9.5625 33.9375 C8.80066406 33.22464844 8.03882813 32.51179688 7.25390625 31.77734375 C4.91546428 29.93333839 2.80645486 28.95528358 0 28 C-0.60585937 28.54527344 -1.21171875 29.09054688 -1.8359375 29.65234375 C-2.67382812 30.40644531 -3.51171875 31.16054688 -4.375 31.9375 C-5.2928125 32.76378906 -6.210625 33.59007812 -7.15625 34.44140625 C-8.92603077 36.03372274 -10.69670363 37.62504898 -12.46875 39.21484375 C-17.57256635 43.79667888 -22.63812906 48.41738417 -27.68579102 53.06079102 C-30.36242259 55.51748432 -33.05957101 57.94175638 -35.8125 60.3125 C-40.3962788 64.28637892 -44.79858559 68.45371155 -49.2253418 72.6003418 C-54.12182954 77.18613407 -59.05332008 81.73041077 -64.00390625 86.2578125 C-67.36391989 89.3307898 -70.71458031 92.41385565 -74.0625 95.5 C-74.61115723 96.0048291 -75.15981445 96.5096582 -75.72509766 97.02978516 C-77.78161009 98.92666845 -79.82168578 100.81171295 -81.74609375 102.84375 C-83 104 -83 104 -85 104 C-84.93192139 105.29510498 -84.86384277 106.59020996 -84.79370117 107.92456055 C-84.55623397 112.78581307 -84.40841891 117.64656995 -84.28588867 122.51196289 C-84.22099009 124.60659284 -84.13262563 126.70064489 -84.01928711 128.79321289 C-83.05066812 147.15314475 -83.05066812 147.15314475 -87.82202148 153.17114258 C-90.48622338 155.99790707 -93.40823078 158.38002896 -96.49497986 160.727005 C-99.35706541 163.14785007 -101.09180599 166.28525058 -102.94921875 169.48828125 C-103.46935547 170.23658203 -103.46935547 170.23658203 -104 171 C-104.66 171 -105.32 171 -106 171 C-106.27918086 161.41178348 -106.49181583 151.8249841 -106.62174606 142.23357677 C-106.68413901 137.77867874 -106.7686091 133.32657856 -106.90527344 128.87329102 C-107.03656462 124.56768583 -107.10758754 120.26475377 -107.13852692 115.95730019 C-107.16054443 114.32201369 -107.20354615 112.68685878 -107.26876068 111.05272484 C-107.78309791 97.61881414 -107.78309791 97.61881414 -103.42004395 92.62466431 C-100.50183319 89.7595952 -97.30696731 87.39813343 -94 85 C-92.35776586 83.56110177 -90.72922071 82.10616071 -89.125 80.625 C-88.32578125 79.90828125 -87.5265625 79.1915625 -86.703125 78.453125 C-83.40015019 75.45562763 -80.13735579 72.41655921 -76.875 69.375 C-72.67986828 65.46469886 -68.45548904 61.61041131 -64.11328125 57.86328125 C-60.65956711 54.81813958 -57.29704279 51.67446463 -53.91992188 48.54492188 C-49.8253935 44.75334127 -45.69149851 41.00896858 -41.53515625 37.28515625 C-38.63086734 34.66726871 -35.75229225 32.02246797 -32.875 29.375 C-29.63788971 26.39775181 -26.3886208 23.44046979 -23.0625 20.5625 C-18.86247457 16.92599999 -14.80164409 13.14197258 -10.74243164 9.34985352 C-7.25609124 6.10700694 -3.68237511 3.0188841 0 0 Z " fill="#112D4D" transform="translate(163,23)"/>
<path d="M0 0 C-1.16809814 3.50429442 -2.07004312 4.01909349 -5 6.125 C-8.5614271 8.74714963 -11.31226639 11.46255615 -14.1875 14.8125 C-18.8431211 19.61310584 -22.69640425 19.82314059 -29.1640625 20.36328125 C-41.28199758 22.37471039 -52.46708519 29.99335179 -59.625 39.75 C-69.14348906 54.01703865 -72.60433574 68.98872587 -69.25 86 C-65.64064438 99.0337842 -57.66519336 111.33429665 -46.2578125 118.79296875 C-33.59526264 125.89592262 -19.54585624 129.76224187 -5.07421875 126.12890625 C10.71430105 121.50513976 21.90453465 112.70084132 30.19921875 98.65625 C36.62068913 86.36763273 38.08123419 71.4472913 34.3125 58.1875 C31.63607225 50.41356497 27.65648747 43.72603746 23 37 C30.06820635 33.08916501 35.86304398 30.27123187 44 30 C51.02745798 40.87534564 56.65732018 52.82824436 57 66 C57.061875 67.07121094 57.12375 68.14242187 57.1875 69.24609375 C57.86237445 89.17597988 51.97192223 106.77622819 39 122 C38.278125 122.99 37.55625 123.98 36.8125 125 C26.23297431 137.40002848 7.70329005 146.72844598 -8.40478516 148.22314453 C-31.18186176 149.59639863 -49.28157469 143.61391489 -67 129 C-68.07894531 128.11248047 -68.07894531 128.11248047 -69.1796875 127.20703125 C-82.2271695 115.33853859 -91.24190459 95.86439866 -92.203125 78.28515625 C-92.64490667 54.87628458 -85.15956079 35.66081208 -69.0625 18.6875 C-50.97832986 1.52526795 -24.39858061 -7.22920907 0 0 Z " fill="#102D4D" transform="translate(149,166)"/>
<path d="M0 0 C2.36786495 -0.00050927 4.73573007 -0.00276797 7.10359192 -0.00663757 C13.51021104 -0.01204146 19.9165393 0.00731169 26.32310629 0.03146338 C32.35185281 0.05248553 38.38062264 0.05187464 44.40939845 0.05349181 C56.34931968 0.0573604 68.28913203 0.07977658 80.22900391 0.11328125 C91.80876115 0.14574871 103.38846092 0.16697054 114.96826172 0.17480469 C116.03948516 0.17553292 116.03948516 0.17553292 117.13234948 0.17627587 C120.00314096 0.1782047 122.87393245 0.18011683 125.74472397 0.18199198 C136.79391182 0.18952472 147.84309028 0.20514836 158.89226659 0.22248858 C162.22747253 0.22772114 165.56267842 0.23265442 168.8978858 0.2368505 C176.49876705 0.24663364 184.09960587 0.26111807 191.70046043 0.2836895 C194.00432259 0.28981337 196.30818989 0.29426275 198.61205864 0.29693222 C201.75173095 0.30091197 204.89132397 0.31102835 208.03097534 0.32279968 C208.94662636 0.32261532 209.86227737 0.32243096 210.80567539 0.32224101 C214.90210529 0.34391171 218.71259254 0.43540925 222.70751953 1.4699707 C222.70751953 2.1299707 222.70751953 2.7899707 222.70751953 3.4699707 C223.69751953 3.5318457 224.68751953 3.5937207 225.70751953 3.6574707 C230.48601543 4.34972765 233.82794824 6.72751514 237.70751953 9.4699707 C238.38041016 9.91469727 239.05330078 10.35942383 239.74658203 10.81762695 C245.18550034 14.58707034 248.90382433 19.09434024 252.70751953 24.4699707 C253.45001953 25.5012207 254.19251953 26.5324707 254.95751953 27.5949707 C260.49375959 36.69022222 262.00996421 45.44311297 261.96821594 55.85568237 C261.97204149 56.8763502 261.97586704 57.89701803 261.97980851 58.94861519 C261.99009507 62.3553635 261.98615458 65.7619419 261.98217773 69.16870117 C261.9865266 71.61668045 261.99171034 74.06465838 261.99766541 76.51263428 C262.00965883 82.46393756 262.01220907 88.41517451 262.00986514 94.36648379 C262.00807913 99.20602934 262.00983768 104.04556122 262.01408958 108.88510513 C262.01468477 109.57497429 262.01527996 110.26484346 262.01589319 110.97561774 C262.01710499 112.37727816 262.01831913 113.77893858 262.01953556 115.18059899 C262.03040196 128.31362497 262.0282529 141.44662526 262.02215072 154.57965268 C262.01698253 166.58076048 262.028236 178.58178708 262.04724894 190.58287881 C262.06664468 202.92066344 262.07488028 215.25840968 262.07112569 227.59620965 C262.06921625 234.51690412 262.071676 241.43752951 262.08584023 248.35821152 C262.09902749 254.86714315 262.09647046 261.37593938 262.08342934 267.88488007 C262.08106491 270.27049693 262.08379342 272.65612524 262.09205246 275.04172897 C262.1025326 278.30477087 262.09440858 281.56726909 262.08174133 284.83029175 C262.08911562 285.76844345 262.0964899 286.70659515 262.10408765 287.67317569 C262.02546058 297.33798798 259.34345803 305.43373334 254.14501953 313.5324707 C253.48856445 314.56271362 253.48856445 314.56271362 252.81884766 315.61376953 C246.84647009 324.6567096 239.09237124 331.84438212 228.70751953 335.4699707 C227.38751953 335.4699707 226.06751953 335.4699707 224.70751953 335.4699707 C224.70751953 336.1299707 224.70751953 336.7899707 224.70751953 337.4699707 C211.91668709 340.49092848 199.70365577 340.89395352 186.61083984 340.84228516 C184.43093187 340.84471838 182.25102503 340.84844283 180.07112122 340.85334778 C174.19742272 340.86268543 168.32389294 340.85339288 162.45020771 340.84001565 C156.2805869 340.82862836 150.11097352 340.83281411 143.94134521 340.83476257 C133.58879874 340.83564299 123.23631806 340.8246158 112.88378906 340.80615234 C100.93670786 340.78496627 88.98972281 340.78148116 77.04262662 340.7877143 C65.51494412 340.79341925 53.98729526 340.7877504 42.45961761 340.77654076 C37.56838098 340.77191204 32.67716504 340.77101338 27.78592682 340.7731266 C22.02379129 340.77501766 16.2617529 340.76684291 10.49963951 340.75106621 C8.39222045 340.74684398 6.2847915 340.74595883 4.17737007 340.74875641 C-14.22809731 340.76947369 -31.75267712 340.27323883 -46.29248047 327.4699707 C-47.03240234 326.85766602 -47.77232422 326.24536133 -48.53466797 325.61450195 C-55.57008052 319.30158126 -58.7988827 312.05206957 -62.29248047 303.4699707 C-62.64310547 302.6346582 -62.99373047 301.7993457 -63.35498047 300.9387207 C-66.17365066 293.89204523 -66.44117292 287.21679105 -66.43965149 279.74478149 C-66.44332818 278.77089143 -66.44700487 277.79700137 -66.45079297 276.79359949 C-66.46179861 273.53288582 -66.4656684 270.27220405 -66.46948242 267.01147461 C-66.47574956 264.67204691 -66.48239659 262.3326202 -66.48939514 259.99319458 C-66.51041295 252.31098114 -66.5207973 244.62876756 -66.53076172 236.9465332 C-66.53481051 234.29770268 -66.53892747 231.64887227 -66.5431118 229.00004196 C-66.56012111 217.97664281 -66.57461199 206.95324462 -66.58186054 195.92983437 C-66.58377017 193.07228214 -66.58569054 190.21472993 -66.58764648 187.35717773 C-66.58813022 186.64702017 -66.58861396 185.9368626 -66.58911236 185.2051851 C-66.59740044 173.71884151 -66.62271794 162.23260247 -66.65522716 150.74630447 C-66.68839353 138.93062553 -66.70631801 127.11499954 -66.70950478 115.29927385 C-66.71166129 108.67455094 -66.72073302 102.04996293 -66.74596596 95.42528152 C-66.76934855 89.18553416 -66.77343894 82.94605968 -66.76320457 76.70627975 C-66.76271154 74.42637979 -66.76896284 72.14646593 -66.78276062 69.86660767 C-66.96453167 38.0292514 -66.96453167 38.0292514 -57.29248047 26.4699707 C-56.00395195 24.13500085 -54.78874722 21.77561424 -53.60107422 19.38793945 C-52.06767503 17.14047975 -50.6972225 16.63545917 -48.29248047 15.4699707 C-47.96248047 14.4799707 -47.63248047 13.4899707 -47.29248047 12.4699707 C-45.11279297 10.86450195 -45.11279297 10.86450195 -42.41748047 9.2824707 C-41.53318359 8.75266602 -40.64888672 8.22286133 -39.73779297 7.67700195 C-37.29248047 6.4699707 -37.29248047 6.4699707 -34.29248047 6.4699707 C-34.29248047 5.8099707 -34.29248047 5.1499707 -34.29248047 4.4699707 C-23.66811417 -1.27585979 -11.68679495 -0.06978823 0 0 Z M-41.29248047 14.4699707 C-42.2109375 15.07711914 -42.2109375 15.07711914 -43.14794922 15.6965332 C-52.44542364 22.63240657 -58.5209651 34.87135314 -60.8110466 45.9869976 C-61.42555604 50.43271689 -61.43718086 54.77756127 -61.43292236 59.26004028 C-61.43589349 60.24083616 -61.43886461 61.22163204 -61.44192576 62.232149 C-61.45059174 65.51602142 -61.45211924 68.79985729 -61.45361328 72.08374023 C-61.45824297 74.43950986 -61.46326783 76.79527874 -61.46865845 79.15104675 C-61.48313774 86.2172598 -61.48916508 93.28346502 -61.49405396 100.34969026 C-61.49663534 103.68240618 -61.50042517 107.01512078 -61.50417328 110.34783554 C-61.51636278 121.43472453 -61.52666241 132.52161161 -61.53004837 143.60850716 C-61.53026794 144.317472 -61.5304875 145.02643684 -61.53071372 145.75688546 C-61.530932 146.46749381 -61.53115028 147.17810217 -61.53137517 147.91024411 C-61.53181863 149.35007485 -61.53226519 150.78990559 -61.53271484 152.22973633 C-61.53293627 152.94393375 -61.5331577 153.65813118 -61.53338584 154.39397095 C-61.53733089 165.95736098 -61.55477737 177.52068787 -61.57807437 189.08405353 C-61.60183089 200.97203438 -61.61425219 212.85998362 -61.61541629 224.74798858 C-61.61633069 231.41614991 -61.62234522 238.08424009 -61.6402359 244.75238419 C-61.6567465 251.02820034 -61.65885746 257.30386076 -61.65009689 263.57969093 C-61.64932811 265.87739162 -61.65364824 268.17510077 -61.66355515 270.47278023 C-61.74157021 289.70114298 -60.5288306 306.17384957 -46.47998047 320.9074707 C-30.92909896 335.29261897 -13.20143216 336.07173513 6.95605469 335.97167969 C9.15242355 335.97547083 11.34879001 335.98097738 13.54515076 335.98805237 C19.46447933 336.00191874 25.38351437 335.99090017 31.3028264 335.97434115 C37.52222914 335.96040517 43.7416163 335.96696028 49.96102905 335.97047424 C61.06620122 335.9733414 72.17124637 335.95686677 83.27638786 335.93205351 C93.31759698 335.91009013 103.35867548 335.90617972 113.39990234 335.91601562 C126.35373607 335.9286443 139.30747285 335.92610047 152.26130295 335.91035652 C157.18997219 335.9046225 162.11859035 335.90465894 167.04726028 335.90942192 C172.85705025 335.91421961 178.66663106 335.90397499 184.4763813 335.88246727 C186.59908277 335.87693763 188.72180449 335.8763986 190.84450722 335.88142014 C210.03404157 335.92109871 228.0026984 334.64770787 242.67626953 320.6652832 C253.59308368 308.86672637 258.03510335 295.24447696 257.96821594 279.39506531 C257.97204149 278.41987326 257.97586704 277.44468121 257.97980851 276.43993789 C257.99007479 273.19297566 257.98615848 269.94619238 257.98217773 266.69921875 C257.98652775 264.36270993 257.99171187 262.02620255 257.99766541 259.68969727 C258.01103601 253.3569657 258.01163617 247.02429389 258.00910211 240.69155097 C258.00789533 234.72808189 258.01411516 228.76462279 258.01953556 222.80115674 C258.03039777 210.26656606 258.02825501 197.73200233 258.02215072 185.19741014 C258.01698402 173.75060348 258.02823281 162.30388198 258.04724894 150.85709216 C258.0666593 139.08201204 258.07487766 127.30697213 258.07112569 115.53187591 C258.06921832 108.92971559 258.07192297 102.3276186 258.08584023 95.72546959 C258.09844345 89.51444469 258.0964507 83.30358982 258.08342934 77.09256744 C258.08106938 74.81905624 258.08377729 72.54553297 258.09205246 70.2720356 C258.15897092 50.45063197 256.4867883 33.73360339 242.06298828 18.6574707 C230.96882336 8.35443197 217.85598198 4.14906943 202.9430542 4.20254517 C202.00123614 4.19801405 201.05941807 4.19348294 200.08906007 4.18881452 C196.95499309 4.17622438 193.82110108 4.17778741 190.68701172 4.17944336 C188.43094155 4.17345475 186.17487343 4.16664844 183.91880798 4.15908813 C177.80501567 4.14145484 171.69127939 4.13673387 165.5774641 4.13545656 C161.75356403 4.13403289 157.92967811 4.1297592 154.10578156 4.12446213 C141.44182882 4.106924 128.77791683 4.09762078 116.11395523 4.09912308 C115.43246329 4.09920299 114.75097134 4.0992829 114.04882812 4.09936523 C113.36649566 4.099447 112.6841632 4.09952876 111.98115399 4.099613 C100.92945639 4.10042546 89.87789522 4.08129376 78.82623705 4.0530885 C67.45456049 4.02429754 56.08297102 4.01091712 44.71124959 4.01227605 C38.3364979 4.01278487 31.96190068 4.00714581 25.58718109 3.98591995 C19.58869479 3.96649125 13.59050961 3.96644498 7.59201241 3.98095322 C5.39793264 3.98303665 3.20383379 3.97836842 1.00978661 3.9662323 C-14.98380131 3.88353689 -27.78107377 5.01438591 -41.29248047 14.4699707 Z " fill="#000000" transform="translate(66.29248046875,-0.469970703125)"/>
<path d="M0 0 C2.37102672 0.96495273 3.53268815 2.06936629 5.265625 3.9453125 C8.28253915 7.18625493 11.54328256 10.04905352 14.88378906 12.94677734 C18.25326831 15.90799857 21.50636105 18.98890742 24.765625 22.0703125 C30.44732508 27.42023447 36.16441369 32.72454985 41.9296875 37.984375 C44.2732062 40.12963171 46.59654031 42.29543921 48.9140625 44.46875 C49.58429443 45.0970874 50.25452637 45.7254248 50.94506836 46.37280273 C52.24947056 47.59727561 53.55245112 48.82326534 54.85375977 50.05102539 C55.45244873 50.61297607 56.0511377 51.17492676 56.66796875 51.75390625 C57.23668701 52.29740723 57.80540527 52.8409082 58.39135742 53.40087891 C60.12648017 55.01085995 60.12648017 55.01085995 62.9375 56.49609375 C66.51527823 60.49755624 65.53068563 65.42838889 65.328125 70.5703125 C65.29428711 72.18873047 65.29428711 72.18873047 65.25976562 73.83984375 C65.2008815 76.501406 65.11869501 79.16015478 65.015625 81.8203125 C60.24068374 80.80608503 55.60146863 79.6918524 50.953125 78.1953125 C44.63284247 76.59080779 38.43532493 76.52467128 31.953125 76.5078125 C30.44576782 76.49983643 30.44576782 76.49983643 28.90795898 76.49169922 C22.06354375 76.55540979 15.71912074 77.43775093 9.015625 78.8203125 C9.015625 72.8803125 9.015625 66.9403125 9.015625 60.8203125 C13.305625 60.4903125 17.595625 60.1603125 22.015625 59.8203125 C18.37794894 54.2938431 14.73015174 48.7961327 10.8828125 43.4140625 C10.34688477 42.66374756 9.81095703 41.91343262 9.25878906 41.14038086 C8.19494946 39.65617374 7.12670841 38.17510982 6.05371094 36.69750977 C3.53397568 33.18096067 1.36709321 29.98055501 0.015625 25.8203125 C-0.644375 25.8203125 -1.304375 25.8203125 -1.984375 25.8203125 C-2.2522583 26.5522583 -2.5201416 27.2842041 -2.79614258 28.03833008 C-3.96138251 30.76648068 -5.28176026 32.91917897 -6.99609375 35.33203125 C-7.58970703 36.17314453 -8.18332031 37.01425781 -8.79492188 37.88085938 C-9.41431641 38.74775391 -10.03371094 39.61464844 -10.671875 40.5078125 C-11.27193359 41.35537109 -11.87199219 42.20292969 -12.49023438 43.07617188 C-13.70050135 44.78562523 -14.91257363 46.49380192 -16.12646484 48.20068359 C-19.09967484 52.39287062 -22.04088023 56.60722307 -24.984375 60.8203125 C-18.054375 61.3153125 -18.054375 61.3153125 -10.984375 61.8203125 C-10.984375 67.1003125 -10.984375 72.3803125 -10.984375 77.8203125 C-12.675625 77.6553125 -14.366875 77.4903125 -16.109375 77.3203125 C-31.59849542 76.18737465 -46.15704294 75.69065469 -60.984375 80.8203125 C-62.1084375 81.19414062 -63.2325 81.56796875 -64.390625 81.953125 C-65.2465625 82.23929687 -66.1025 82.52546875 -66.984375 82.8203125 C-68.61336263 61.67104085 -68.61336263 61.67104085 -65.109375 55.5390625 C-62.5264901 53.31132428 -59.90561358 51.57547656 -56.984375 49.8203125 C-55.41091307 48.48181384 -53.86930295 47.10509217 -52.359375 45.6953125 C-51.54210937 44.96054688 -50.72484375 44.22578125 -49.8828125 43.46875 C-45.50305718 39.46676333 -41.18940495 35.39506605 -36.86865234 31.32958984 C-32.53104764 27.25369308 -28.14423854 23.24388327 -23.69921875 19.28515625 C-19.21414181 15.21309359 -14.82110446 11.04175844 -10.42773438 6.87109375 C-9.76708984 6.2471875 -9.10644531 5.62328125 -8.42578125 4.98046875 C-7.83482666 4.41980713 -7.24387207 3.85914551 -6.63500977 3.28149414 C-2.65632505 -0.24053337 -2.65632505 -0.24053337 0 0 Z " fill="#0F2D4C" transform="translate(164.984375,77.1796875)"/>
<path d="M0 0 C3.16666963 2.63112991 6.13328475 5.35507588 8.9375 8.375 C9.55367187 9.00921875 10.16984375 9.6434375 10.8046875 10.296875 C22.9375 23.20801887 22.9375 23.20801887 22.9375 30.375 C19.25137336 30.63819835 15.56767002 30.79676303 11.875 30.9375 C10.31749023 31.05061523 10.31749023 31.05061523 8.72851562 31.16601562 C1.07083154 31.3848066 1.07083154 31.3848066 -2.18823242 28.48095703 C-3.93183258 26.17495872 -5.48989764 23.79922055 -7.0625 21.375 C-13.78693432 15.19206479 -21.49992391 11.3706888 -30.0625 8.375 C-31.05636719 8.00568359 -31.05636719 8.00568359 -32.0703125 7.62890625 C-44.29346984 3.79263392 -56.70602349 6.36553203 -68.0625 11.375 C-81.9309327 18.63695294 -90.86337279 29.59153632 -96 44.375 C-100.28089252 59.35812382 -97.93381914 73.57396524 -91.0625 87.375 C-90.1421244 88.73481223 -89.18824395 90.07319659 -88.1875 91.375 C-86.0625 94.375 -86.0625 94.375 -86.1796875 96.42578125 C-87.66136201 99.69726611 -90.31053126 100.25471183 -93.49609375 101.55859375 C-97.36321713 102.78877455 -101.0180776 103.11821128 -105.0625 103.375 C-116.92700143 87.2294929 -121.16756342 68.87836309 -118.55859375 49.15234375 C-115.46761729 29.28346233 -105.22427646 12.37206541 -89.36474609 0.05664062 C-62.54807093 -19.49323842 -26.66088625 -20.16037362 0 0 Z " fill="#0F2D4D" transform="translate(241.0625,178.625)"/>
<path d="M0 0 C7.52970132 -0.02464032 15.05937939 -0.04283141 22.58911133 -0.05493164 C25.15291757 -0.0599737 27.71672091 -0.06680714 30.28051758 -0.07543945 C33.95655021 -0.08751064 37.63254498 -0.09322942 41.30859375 -0.09765625 C42.46274277 -0.10281754 43.61689178 -0.10797882 44.80601501 -0.11329651 C46.3975515 -0.11340981 46.3975515 -0.11340981 48.02124023 -0.11352539 C48.96055893 -0.115746 49.89987762 -0.11796661 50.86766052 -0.12025452 C53 0 53 0 54 1 C55.36774116 22.39057478 50.22220499 42.36660079 35.9765625 58.83984375 C35.32429688 59.55269531 34.67203125 60.26554687 34 61 C33.40960938 61.68191406 32.81921875 62.36382812 32.2109375 63.06640625 C22.91428297 73.17404554 11.02729117 79.21935256 -2 83 C-3.87751953 83.55107422 -3.87751953 83.55107422 -5.79296875 84.11328125 C-10.50652164 85.26117931 -15.10713793 85.29414649 -19.9375 85.25 C-21.20110352 85.26160156 -21.20110352 85.26160156 -22.49023438 85.2734375 C-28.2694348 85.25564166 -33.39892609 84.42428923 -39 83 C-35.54668685 79.43877082 -31.93584393 76.15888138 -28.16015625 72.94140625 C-26.07228417 71.14655059 -26.07228417 71.14655059 -24.71069336 69.5090332 C-20.68048258 64.96807666 -17.33624481 63.94812768 -11.4375 63.0625 C2.64644597 60.42911495 14.14131853 53.81103617 22.75 42.1875 C27.41103683 35.20125345 29.70256314 28.041029 32 20 C21.44 20 10.88 20 0 20 C0 13.4 0 6.8 0 0 Z " fill="#0F2C4C" transform="translate(217,229)"/>
<path d="M0 0 C9.57 0 19.14 0 29 0 C29 11.55 29 23.1 29 35 C25.44286117 33.22143058 23.88610569 32.08476818 21.25 29.3125 C18.6018624 26.59583389 15.92736323 23.9874561 13.0625 21.5 C12.41410156 20.92894531 11.76570312 20.35789062 11.09765625 19.76953125 C9.603914 18.509447 8.06388222 17.30338817 6.49609375 16.13671875 C5.67238281 15.49347656 4.84867188 14.85023437 4 14.1875 C3.236875 13.62417969 2.47375 13.06085937 1.6875 12.48046875 C0 10 0 10 0 0 Z " fill="#1D9DDB" transform="translate(216,48)"/>
<path d="M0 0 C9.57 0 19.14 0 29 0 C29 11.55 29 23.1 29 35 C25.44286117 33.22143058 23.88610569 32.08476818 21.25 29.3125 C18.6018624 26.59583389 15.92736323 23.9874561 13.0625 21.5 C12.41410156 20.92894531 11.76570312 20.35789062 11.09765625 19.76953125 C9.603914 18.509447 8.06388222 17.30338817 6.49609375 16.13671875 C5.67238281 15.49347656 4.84867188 14.85023437 4 14.1875 C3.236875 13.62417969 2.47375 13.06085937 1.6875 12.48046875 C0 10 0 10 0 0 Z M1 2 C1 4.31 1 6.62 1 9 C3.16867199 11.23559978 3.16867199 11.23559978 6 13 C7.67859226 14.65465512 9.34257954 16.32413814 11 18 C13.56403805 20.45817846 16.15603573 22.88596888 18.75 25.3125 C19.43449219 25.95767578 20.11898437 26.60285156 20.82421875 27.26757812 C21.47519531 27.87666016 22.12617188 28.48574219 22.796875 29.11328125 C23.68391113 29.94533081 23.68391113 29.94533081 24.58886719 30.79418945 C25.81735067 32.10827193 25.81735067 32.10827193 27 32 C27 22.1 27 12.2 27 2 C18.42 2 9.84 2 1 2 Z " fill="#2890C1" transform="translate(216,48)"/>
<path d="M0 0 C7.52970132 -0.02464032 15.05937939 -0.04283141 22.58911133 -0.05493164 C25.15291757 -0.0599737 27.71672091 -0.06680714 30.28051758 -0.07543945 C33.95655021 -0.08751064 37.63254498 -0.09322942 41.30859375 -0.09765625 C42.46274277 -0.10281754 43.61689178 -0.10797882 44.80601501 -0.11329651 C46.3975515 -0.11340981 46.3975515 -0.11340981 48.02124023 -0.11352539 C48.96055893 -0.115746 49.89987762 -0.11796661 50.86766052 -0.12025452 C53 0 53 0 54 1 C54.08651611 2.41570123 54.10704904 3.835595 54.09765625 5.25390625 C54.09443359 6.10791016 54.09121094 6.96191406 54.08789062 7.84179688 C54.07532227 9.18854492 54.07532227 9.18854492 54.0625 10.5625 C54.05798828 11.46419922 54.05347656 12.36589844 54.04882812 13.29492188 C54.03700225 15.53001314 54.0205222 17.76497437 54 20 C53.34 20 52.68 20 52 20 C52 14.06 52 8.12 52 2 C49.78917725 2.00785522 49.78917725 2.00785522 47.53369141 2.01586914 C42.08073531 2.03392902 36.62778187 2.04543565 31.17480469 2.05493164 C28.81184444 2.05996959 26.44888732 2.06680008 24.0859375 2.07543945 C20.69530465 2.08752854 17.30471291 2.09323359 13.9140625 2.09765625 C12.85256989 2.10281754 11.79107727 2.10797882 10.69741821 2.11329651 C9.71655243 2.11337204 8.73568665 2.11344757 7.72509766 2.11352539 C6.42603989 2.11685631 6.42603989 2.11685631 5.10073853 2.12025452 C3 2 3 2 1 1 C1 7.27 1 13.54 1 20 C0.67 20 0.34 20 0 20 C0 13.4 0 6.8 0 0 Z " fill="#394B5E" transform="translate(217,229)"/>
<path d="M0 0 C0.66 0 1.32 0 2 0 C2.15368231 9.48338972 2.30186399 18.96684458 2.4429636 28.45042992 C2.50865123 32.85372 2.57625542 37.25696349 2.64819336 41.66015625 C2.71750768 45.90703117 2.78184808 50.15395463 2.84269524 54.40095901 C2.86682801 56.0237465 2.89277315 57.64650805 2.92053413 59.26923752 C2.9590198 61.53670951 2.99114324 63.80418699 3.02172852 66.07177734 C3.04171402 67.36417328 3.06169952 68.65656921 3.08229065 69.98812866 C3 73 3 73 2 75 C1.34 75 0.68 75 0 75 C0 50.25 0 25.5 0 0 Z " fill="#364558" transform="translate(57,119)"/>
<path d="M0 0 C0.33 0 0.66 0 1 0 C1 11.55 1 23.1 1 35 C-2.55713883 33.22143058 -4.11389431 32.08476818 -6.75 29.3125 C-10.12109761 25.84039572 -13.62911873 22.65167533 -17.3359375 19.54296875 C-19 18 -19 18 -21 15 C-17.96737529 16.36447255 -15.79547836 17.92660153 -13.3984375 20.22265625 C-12.74359375 20.84333984 -12.08875 21.46402344 -11.4140625 22.10351562 C-10.74117187 22.74998047 -10.06828125 23.39644531 -9.375 24.0625 C-8.03058186 25.34708135 -6.68431453 26.62973102 -5.3359375 27.91015625 C-4.74345215 28.47871338 -4.1509668 29.04727051 -3.54052734 29.63305664 C-2.02826021 31.09383963 -2.02826021 31.09383963 0 32 C0 21.44 0 10.88 0 0 Z " fill="#4B9ABE" transform="translate(244,48)"/>
<path d="M0 0 C3.76373813 2.75964276 6.22213527 5.41933614 8.6875 9.375 C9.26886719 10.29023438 9.85023438 11.20546875 10.44921875 12.1484375 C12 15 12 15 14 21 C6.74 21 -0.52 21 -8 21 C-8 20.67 -8 20.34 -8 20 C-1.73 20 4.54 20 11 20 C8.22715909 12.5084677 8.22715909 12.5084677 3.8125 6.625 C0 2.18738739 0 2.18738739 0 0 Z " fill="#15273B" transform="translate(250,188)"/>
<path d="M0 0 C0.33 0.99 0.66 1.98 1 3 C-2.37151606 7.74119446 -6.50300394 11.34538072 -11 15 C-11.66 14.67 -12.32 14.34 -13 14 C-11.2088872 12.04115757 -9.41713468 10.08290714 -7.625 8.125 C-7.11710937 7.56941406 -6.60921875 7.01382813 -6.0859375 6.44140625 C-4.0883974 4.25988219 -2.09183907 2.09183907 0 0 Z " fill="#152A42" transform="translate(84,181)"/>
<path d="M0 0 C0.99 0.66 1.98 1.32 3 2 C3 2.66 3 3.32 3 4 C1.49802644 5.24076077 -0.00612315 6.47921817 -1.53125 7.69140625 C-3.28660135 9.25534961 -4.18614864 10.80260134 -5 13 C-5.66 13 -6.32 13 -7 13 C-5.35821735 8.22390502 -2.73453298 4.20617096 0 0 Z " fill="#1F344B" transform="translate(137,193)"/>
<path d="M0 0 C-1.89332534 0.81832722 -3.78977733 1.62942268 -5.6875 2.4375 C-6.74324219 2.88996094 -7.79898438 3.34242188 -8.88671875 3.80859375 C-11.61972529 4.85447455 -14.12042337 5.53520748 -17 6 C-15.1875 4 -15.1875 4 -13 2 C-12.01 2 -11.02 2 -10 2 C-9.67 1.34 -9.34 0.68 -9 0 C-5.58777852 -1.01444422 -3.37896371 -0.95821359 0 0 Z " fill="#1C3048" transform="translate(116,187)"/>
<path d="M0 0 C0.66 0.33 1.32 0.66 2 1 C-0.24046048 4.4196502 -2.5056788 5.95454369 -6 8 C-7.36984198 9.29579647 -8.7151049 10.61992749 -10 12 C-10.66 11.67 -11.32 11.34 -12 11 C-10.56564079 9.5385774 -9.12739414 8.08096951 -7.6875 6.625 C-6.88699219 5.81289062 -6.08648437 5.00078125 -5.26171875 4.1640625 C-3 2 -3 2 0 0 Z " fill="#14263B" transform="translate(163,77)"/>
<path d="M0 0 C0.66 0.33 1.32 0.66 2 1 C1 4 1 4 -0.84765625 5.16796875 C-1.57855469 5.50441406 -2.30945313 5.84085937 -3.0625 6.1875 C-3.79597656 6.53167969 -4.52945313 6.87585938 -5.28515625 7.23046875 C-6.13400391 7.61138672 -6.13400391 7.61138672 -7 8 C-6.01347016 4.68167234 -5.31268497 3.23451373 -2.5 1.125 C-1.675 0.75375 -0.85 0.3825 0 0 Z " fill="#1E324B" transform="translate(172,298)"/>
<path d="M0 0 C0.99 0.33 1.98 0.66 3 1 C-0.3 3.97 -3.6 6.94 -7 10 C-7.66 9.34 -8.32 8.68 -9 8 C-8.43410156 7.50628906 -7.86820313 7.01257813 -7.28515625 6.50390625 C-6.55167969 5.86324219 -5.81820312 5.22257812 -5.0625 4.5625 C-4.33160156 3.92441406 -3.60070312 3.28632812 -2.84765625 2.62890625 C-1.87860647 1.77458541 -0.91348825 0.91348825 0 0 Z " fill="#DEE6EB" transform="translate(139,96)"/>
<path d="M0 0 C0.99 0.33 1.98 0.66 3 1 C0.69 3.31 -1.62 5.62 -4 8 C-4.99 7.67 -5.98 7.34 -7 7 C-4.69 4.69 -2.38 2.38 0 0 Z " fill="#142841" transform="translate(192,299)"/>
<path d="M0 0 C0.33 0.99 0.66 1.98 1 3 C-1.31 4.98 -3.62 6.96 -6 9 C-6.66 8.34 -7.32 7.68 -8 7 C-5.36 4.69 -2.72 2.38 0 0 Z " fill="#182E45" transform="translate(106,129)"/>
<path d="M0 0 C1.32 0.33 2.64 0.66 4 1 C1.69 2.65 -0.62 4.3 -3 6 C-3 3 -3 3 -1.75 1.25 C-1.1725 0.8375 -0.595 0.425 0 0 Z " fill="#1B314A" transform="translate(70,107)"/>
<path d="M0 0 C0.99 0.33 1.98 0.66 3 1 C1.515 3.475 1.515 3.475 0 6 C-1.32 5.67 -2.64 5.34 -4 5 C-2.68 3.35 -1.36 1.7 0 0 Z " fill="#1B314A" transform="translate(104,76)"/>
<path d="M0 0 C3.37503669 1.1858237 5.64722731 2.27573689 8 5 C7.67 5.99 7.34 6.98 7 8 C5.83035398 6.8572081 4.66435444 5.71068285 3.5 4.5625 C2.8503125 3.92441406 2.200625 3.28632812 1.53125 2.62890625 C0 1 0 1 0 0 Z " fill="#DAE3E8" transform="translate(184,40)"/>
<path d="M0 0 C0.99 0.33 1.98 0.66 3 1 C-0.465 3.97 -0.465 3.97 -4 7 C-4 4 -4 4 -2 1.8125 C-1.34 1.214375 -0.68 0.61625 0 0 Z " fill="#DCE3E8" transform="translate(120,59)"/>
<path d="M0 0 C-1.39332574 3.36720387 -2.9789286 4.9859524 -6 7 C-6 4 -6 4 -4.125 1.8125 C-2 0 -2 0 0 0 Z " fill="#D2DADF" transform="translate(148,181)"/>
<path d="M0 0 C0.99 0.66 1.98 1.32 3 2 C1.35 3.32 -0.3 4.64 -2 6 C-2.33 5.01 -2.66 4.02 -3 3 C-2.01 2.01 -1.02 1.02 0 0 Z " fill="#21364E" transform="translate(123,113)"/>
<path d="M0 0 C3.76488042 1.72154788 6.15063897 3.99234114 9 7 C6 7 6 7 4.39453125 5.46875 C3.87246094 4.8190625 3.35039062 4.169375 2.8125 3.5 C2.28269531 2.8503125 1.75289062 2.200625 1.20703125 1.53125 C0.80871094 1.0259375 0.41039062 0.520625 0 0 Z " fill="#223347" transform="translate(179,62)"/>
<path d="M0 0 C5.875 3.75 5.875 3.75 7 6 C5.68 6 4.36 6 3 6 C3 5.34 3 4.68 3 4 C2.34 4 1.68 4 1 4 C0.67 2.68 0.34 1.36 0 0 Z " fill="#D2F2F9" transform="translate(217,59)"/>
<path d="M0 0 C0.33 0.99 0.66 1.98 1 3 C-0.32 3.99 -1.64 4.98 -3 6 C-3.66 5.34 -4.32 4.68 -5 4 C-3.35 2.68 -1.7 1.36 0 0 Z " fill="#1C3149" transform="translate(138,46)"/>
</svg>
